<svg xmlns="http://www.w3.org/2000/svg" viewBox="0 0 32 32">
  <path d="M31.3166267 19.7010341c-1.5769907 4.2582563-5.6260965 7.0949539-10.166898 7.122663.3694256-.465361.6606583-.9877395.8622795-1.5466536 3.0276382-.3002664 5.7234214-2.0454566 7.2367296-4.6848981 1.5133082-2.6394415 1.6574864-5.8475794.387041-8.6121266-1.5417066-3.33942906-4.8819127-5.48002959-8.5600389-5.4857764-3.6744768.00205354-7.0102151 2.14694694-8.536893 5.4892573a8.5414855 8.5414855 0 0 0-1.5560661-.1685629c2.237272-5.52431297 8.4950695-8.22937878 14.0519429-6.07425059 5.5568733 2.15512819 8.3544137 8.37213549 6.281903 13.96034789zm-14.4590105 7.2014831H4.04575501C1.81031873 26.899005 0 25.0858398 0 22.8504008c0-2.2354391 1.81031873-4.0486043 4.04575501-4.0521165a3.98774613 3.98774613 0 0 1 .44323282.0247863c.75854445-3.1534201 3.71250468-5.2754107 6.94307877-4.9875917 3.230574.287819 5.7628817 2.8985934 5.9520136 6.1364442 1.8015421.2753176 3.0868104 1.8920804 2.9487621 3.7093026-.1380482 1.8172222-1.6527979 3.2212771-3.4752561 3.2212915h.00003zM4.04575501 25.4021353H16.8576162c1.0376819-.000043 1.9002111-.7993598 1.9790814-1.8340401.0788703-1.0346802-.6525387-1.9554978-1.6782248-2.1128246-.7005993-.106626-1.23111-.6888282-1.2723239-1.3962954-.1459141-2.495335-2.0975646-4.5073211-4.5873021-4.7291194-2.48973761-.2217983-4.76630795 1.4135167-5.35101763 3.8437641-.17621202.7359815-.87337853 1.2251822-1.62541374 1.1405503a2.49664144 2.49664144 0 0 0-.27668043-.015504c-1.4073115.0027863-2.54668741 1.1444203-2.54668741 2.5517346 0 1.4073142 1.13937591 2.5489482 2.54668741 2.5517345h.00002001z" fill="#667bb3" fill-rule="nonzero"/>
</svg>
